<svg width="39" height="40" viewBox="0 0 39 40" fill="none" xmlns="http://www.w3.org/2000/svg">
<g clip-path="url(#clip0_184_667)">
<rect width="39" height="40" fill="url(#paint0_linear_184_667)"/>
<path d="M17.7313 27.5857C18.8572 25.6658 21.442 21.9855 27.5966 16.8143C36.8838 9.01093 28.1185 1.87349 18.7021 5.67486C17.6948 6.08157 14.9034 4.45345 12.3177 6.16868C10.6497 7.27514 11.2989 8.14226 10.6494 9.00939C9.99992 9.87652 7.496 9.82549 6.94747 12.0771C6.6226 13.4111 7.52162 14.8083 7.40137 15.8124C7.28112 16.8164 6.33207 17.7215 6.28679 19.0469C6.26719 19.6068 6.35531 20.1651 6.54612 20.69C6.73693 21.2149 7.02668 21.6961 7.39884 22.1061C7.771 22.5161 8.21827 22.8469 8.7151 23.0796C9.21194 23.3123 9.7486 23.4424 10.2944 23.4623C10.2989 24.569 10.7202 25.6312 11.4704 26.4268C12.2206 27.2223 13.2415 27.6898 14.3198 27.7313C15.0113 27.7573 15.698 27.6047 16.317 27.2877C16.9312 27.8683 17.4585 28.0508 17.7313 27.5857Z" fill="url(#paint1_linear_184_667)"/>
<path d="M20.0333 5.20252C18.4322 6.25586 16.4514 9.71052 17.3209 14.348C17.5105 15.3599 16.9179 15.6628 16.4109 14.4147C14.8812 10.6492 14.7038 7.25332 17.3209 5.62892C17.7759 5.34799 18.0359 5.57559 18.3609 5.54799C18.979 5.49546 19.8113 5.04626 20.0333 5.20252Z" fill="url(#paint2_linear_184_667)"/>
<path d="M17.9533 25.6025C17.9533 24.4025 17.9136 18.4836 17.9155 18.3836C14.7034 18.8692 14.7684 12.6025 18.0183 14.1359C18.7333 14.6025 20.7483 14.1359 20.5533 10.2692C24.0633 14.1359 28.1385 9.626 28.4879 13.3009C28.9651 18.3189 28.485 23.5704 25.4445 23.5708C25.1118 23.5667 24.7802 23.5327 24.4533 23.4692V25.6025C24.4533 26.9359 26.7933 27.6025 26.7933 27.6025C26.7933 27.6025 22.7514 31.5092 21.0733 31.4876C19.3953 31.466 15.6134 27.6025 15.6134 27.6025C15.6134 27.6025 17.9533 26.9359 17.9533 25.6025Z" fill="url(#paint3_linear_184_667)"/>
<g style="mix-blend-mode:multiply">
<path d="M24.4533 23.4685C22.8406 23.1017 21.3123 22.418 19.9529 21.4553C19.9529 21.4553 21.0745 24.2677 24.4492 24.8013L24.4533 23.4685Z" fill="#FFDBC9"/>
</g>
<path d="M33.1632 31.6025C34.1064 33.7521 34.5932 40.2692 34.5932 40.2692H7.81323C7.81323 40.2692 8.30008 33.7521 9.24323 31.6025C10.0695 29.7195 15.5143 27.5573 17.1099 26.9359C18.0312 27.9929 19.3515 28.6692 21.2032 28.6692C23.055 28.6692 24.3752 27.9929 25.2965 26.9359C26.8922 27.5573 32.337 29.7195 33.1632 31.6025Z" fill="url(#paint4_linear_184_667)"/>
</g>
<defs>
<linearGradient id="paint0_linear_184_667" x1="19.5" y1="40" x2="19.5" y2="0" gradientUnits="userSpaceOnUse">
<stop stop-color="#FFC9B3"/>
<stop offset="1" stop-color="#FFD2C2"/>
</linearGradient>
<linearGradient id="paint1_linear_184_667" x1="18.4676" y1="27.8912" x2="19.3099" y2="4.44949" gradientUnits="userSpaceOnUse">
<stop stop-color="#E6864E"/>
<stop offset="1" stop-color="#E67240"/>
</linearGradient>
<linearGradient id="paint2_linear_184_667" x1="17.666" y1="5.16968" x2="17.666" y2="15.2344" gradientUnits="userSpaceOnUse">
<stop stop-color="#1D0024"/>
<stop offset="1" stop-color="#100014"/>
</linearGradient>
<linearGradient id="paint3_linear_184_667" x1="22.0951" y1="10.2692" x2="22.0951" y2="31.4877" gradientUnits="userSpaceOnUse">
<stop stop-color="#FFE0CC"/>
<stop offset="1" stop-color="#FFEADB"/>
</linearGradient>
<linearGradient id="paint4_linear_184_667" x1="21.2032" y1="26.9359" x2="21.2032" y2="40.2692" gradientUnits="userSpaceOnUse">
<stop stop-color="#130027"/>
<stop offset="1" stop-color="#130017"/>
</linearGradient>
<clipPath id="clip0_184_667">
<rect width="39" height="40" fill="white"/>
</clipPath>
</defs>
</svg>
