<svg width="527" height="527" viewBox="0 0 527 527" fill="none" xmlns="http://www.w3.org/2000/svg">
<path d="M244.008 455.733C195.102 450.829 149.669 440.302 116.082 426.09C81.3115 411.38 63.083 394.11 64.7525 377.462C66.4221 360.814 87.717 347.509 124.716 339.996C160.456 332.739 207.074 331.442 255.981 336.346C304.888 341.251 350.319 351.779 383.907 365.988C418.676 380.699 436.905 397.967 435.235 414.616C433.566 431.264 412.271 444.57 375.273 452.083C339.532 459.342 292.915 460.638 244.008 455.733Z" fill="#A170B4"/>
<path d="M255.642 339.723C356.082 349.795 434.977 383.175 431.858 414.277C428.739 445.38 344.787 462.429 244.347 452.356C143.907 442.284 65.0105 408.904 68.1296 377.801C71.2487 346.699 155.202 329.65 255.642 339.723ZM256.32 332.97C207.083 328.032 160.105 329.346 124.04 336.669C84.9021 344.618 63.2332 358.607 61.3763 377.124C59.5193 395.641 77.9788 413.655 114.759 429.216C148.652 443.555 194.433 454.172 243.67 459.109C292.906 464.047 339.884 462.733 375.949 455.409C415.086 447.461 436.754 433.472 438.611 414.954C440.468 396.438 422.01 378.424 385.23 362.863C351.336 348.524 305.556 337.907 256.32 332.97Z" fill="#020102"/>
<path d="M389.608 372.231C393.526 377.344 395.391 382.52 394.879 387.632C391.967 416.661 313.727 432.584 220.126 423.197C151.013 416.266 92.8555 397.474 68.3229 376.431C68.2419 376.884 68.1755 377.342 68.1294 377.801C65.0103 408.904 143.907 442.284 244.347 452.356C344.787 462.429 428.738 445.38 431.858 414.277C433.299 399.907 417.22 385.05 389.608 372.231Z" fill="#88589E"/>
<path d="M250.878 407.439C199.717 402.308 163.199 387.33 162.837 387.179C162.045 386.85 161.407 386.234 161.052 385.457C160.171 383.53 158.529 379.943 169.196 346.44C175.573 326.414 185.19 299.424 197.009 268.386C222.408 201.685 253.185 128.568 279.336 72.7981C279.927 71.5364 281.23 70.7645 282.62 70.8514C282.663 70.8539 282.706 70.8582 282.749 70.8625C284.083 70.9963 285.22 71.9061 285.637 73.1905C286.234 75.0342 345.449 259.21 340.5 401.509C340.445 403.113 339.275 404.457 337.694 404.734C310.151 409.544 280.942 410.454 250.878 407.439Z" fill="#A170B4"/>
<path d="M282.409 74.2386C282.409 74.2386 342.095 258.044 337.11 401.39C306.327 406.768 276.841 406.632 251.217 404.063C199.962 398.923 164.137 384.044 164.137 384.044C158.706 372.177 226.26 193.981 282.409 74.2386ZM283.088 67.4854C283.003 67.4769 282.918 67.4702 282.832 67.465C280.052 67.2913 277.447 68.8343 276.265 71.3568C250.079 127.199 219.265 200.404 193.838 267.179C181.996 298.275 172.358 325.326 165.963 345.41C162.623 355.901 160.193 364.414 158.744 370.713C156.466 380.605 156.758 384.228 157.966 386.868C158.678 388.425 159.954 389.655 161.535 390.312C163.036 390.936 198.881 405.635 250.54 410.816C280.911 413.861 310.43 412.94 338.279 408.076C341.44 407.525 343.782 404.834 343.893 401.626C346.494 326.86 331.385 241.238 318.253 182.577C304.049 119.13 289.013 72.6051 288.865 72.1426C288.029 69.5745 285.759 67.7533 283.088 67.4854Z" fill="#020102"/>
<path d="M306.539 388.853C282.559 393.617 255.354 392.844 233.897 379.91C217.991 370.32 207.741 352.753 206.74 334.261C206.113 322.674 207.92 310.718 213.091 300.224C218.835 288.569 227.205 279.412 235.678 269.692C240.044 264.683 244.422 259.659 248.444 254.362C250.245 251.989 252.023 249.593 253.668 247.105C254.483 245.869 255.304 244.633 256.069 243.364C256.05 243.397 257.88 240.181 257.528 240.921C263.764 228.84 266.14 218.984 266.451 205.418C266.779 191.144 265.193 177.674 265.815 162.632C266.427 147.791 269.255 131.799 277.962 119.377C281.711 114.026 286.542 109.609 291.959 106.264C286.276 86.149 282.409 74.2384 282.409 74.2384C226.26 193.98 158.707 372.176 164.137 384.044C164.137 384.044 244.75 417.523 337.11 401.39C337.357 394.273 337.444 387.054 337.388 379.765C327.247 383.768 316.76 386.824 306.539 388.853Z" fill="#88589E"/>
<path d="M168.788 255.845C168.213 255.787 167.647 255.582 167.151 255.226C165.812 254.265 165.355 252.482 166.071 250.997C171.112 240.521 170.928 239.404 162.783 231.082C161.632 229.905 161.491 228.07 162.45 226.732C163.176 225.721 164.368 225.213 165.548 225.332C165.932 225.37 166.315 225.475 166.679 225.651C170.541 227.506 173.574 228.789 175.818 229.014C178.664 229.299 180.98 227.872 186.6 222.375C187.341 221.652 188.341 221.327 189.314 221.425C189.889 221.483 190.455 221.688 190.952 222.044C192.289 223.005 192.746 224.788 192.032 226.272C186.991 236.754 187.175 237.872 195.322 246.192C196.474 247.37 196.615 249.205 195.655 250.544C194.93 251.553 193.737 252.061 192.556 251.943C192.173 251.904 191.791 251.799 191.427 251.624C187.563 249.766 184.529 248.483 182.283 248.257C179.436 247.972 177.119 249.399 171.503 254.895C170.761 255.619 169.763 255.942 168.788 255.845Z" fill="#FFFF52"/>
<path d="M188.973 224.802C183.292 236.616 183.716 239.189 192.897 248.566C188.446 246.426 185.305 245.15 182.622 244.881C178.171 244.435 174.974 246.75 169.129 252.469C174.812 240.657 174.388 238.087 165.209 228.71C169.658 230.848 172.797 232.122 175.479 232.391C179.93 232.837 183.127 230.521 188.973 224.802ZM189.654 218.048C187.707 217.853 185.708 218.502 184.227 219.95C178.646 225.408 177.316 225.754 176.157 225.638C174.296 225.451 171.065 223.993 168.149 222.591C167.421 222.241 166.656 222.032 165.889 221.955C163.528 221.718 161.142 222.734 159.693 224.753C157.773 227.431 158.053 231.102 160.359 233.457C163.157 236.314 165.782 239.18 166.046 240.781C166.309 242.379 164.743 245.928 163.013 249.526C161.585 252.495 162.495 256.062 165.172 257.982C166.167 258.696 167.299 259.106 168.448 259.221C170.395 259.417 172.396 258.769 173.875 257.32C179.454 251.863 180.784 251.518 181.945 251.634C183.806 251.821 187.039 253.28 189.955 254.683C190.685 255.034 191.449 255.243 192.217 255.32C194.578 255.557 196.962 254.542 198.412 252.521C200.332 249.843 200.051 246.172 197.747 243.818C194.948 240.96 192.323 238.095 192.058 236.493C191.794 234.893 193.36 231.342 195.09 227.743C196.518 224.774 195.607 221.208 192.93 219.287C191.936 218.573 190.805 218.163 189.654 218.048Z" fill="#020102"/>
<path d="M324.36 261.792C322.791 261.634 321.527 260.409 321.331 258.828C318.883 238.838 317.097 236.859 297.446 232.343C295.841 231.975 294.731 230.506 294.817 228.86C294.903 227.214 296.158 225.868 297.793 225.668C317.797 223.215 319.779 221.429 324.299 201.799C324.67 200.194 326.139 199.085 327.783 199.172C327.838 199.175 327.892 199.178 327.948 199.184C329.517 199.341 330.781 200.567 330.974 202.148C333.427 222.142 335.212 224.122 354.862 228.634C356.468 229.003 357.578 230.472 357.492 232.118C357.407 233.763 356.151 235.109 354.516 235.309C334.502 237.764 332.521 239.548 328.009 259.176C327.639 260.782 326.17 261.89 324.524 261.804C324.47 261.802 324.415 261.797 324.36 261.792Z" fill="#FFFF52"/>
<path d="M327.606 202.56C330.227 223.934 333.093 227.117 354.103 231.941C332.704 234.565 329.526 237.426 324.7 258.415C322.082 237.041 319.216 233.864 298.206 229.035C319.601 226.411 322.772 223.55 327.606 202.56ZM328.287 195.808C328.178 195.797 328.07 195.788 327.959 195.783C324.671 195.61 321.732 197.827 320.992 201.037C319 209.686 317.311 215.177 314.575 217.642C311.836 220.109 306.196 221.218 297.379 222.299C294.11 222.7 291.599 225.393 291.428 228.684C291.257 231.974 293.474 234.912 296.686 235.651C305.344 237.64 310.839 239.327 313.31 242.066C315.777 244.803 316.886 250.436 317.963 259.241C318.351 262.403 320.88 264.854 324.021 265.169C324.129 265.18 324.238 265.188 324.347 265.193C327.639 265.365 330.577 263.148 331.316 259.936C333.303 251.289 334.99 245.801 337.729 243.335C340.468 240.868 346.11 239.759 354.928 238.678C358.2 238.277 360.71 235.584 360.88 232.293C361.053 229.001 358.834 226.064 355.622 225.326C346.966 223.338 341.471 221.651 339 218.912C336.531 216.174 335.422 210.541 334.344 201.734C333.955 198.573 331.427 196.123 328.287 195.808Z" fill="#020102"/>
<path d="M297.177 421.832C296.828 421.797 296.482 421.709 296.147 421.56C294.64 420.896 293.827 419.244 294.221 417.645C296.286 409.241 296.137 408.86 288.934 404.045C287.563 403.131 287.048 401.363 287.713 399.856C288.312 398.497 289.714 397.702 291.156 397.846C291.312 397.862 291.471 397.89 291.629 397.929C294.083 398.532 295.667 398.843 296.929 398.969C299.897 399.267 300.945 399.068 305.234 392.652C305.947 391.587 307.176 391.04 308.395 391.162C308.743 391.197 309.091 391.287 309.426 391.434C310.933 392.099 311.744 393.749 311.352 395.35C309.284 403.755 309.432 404.137 316.639 408.95C318.011 409.865 318.525 411.632 317.861 413.141C317.262 414.5 315.86 415.294 314.418 415.149C314.26 415.133 314.102 415.107 313.945 415.068C311.488 414.463 309.9 414.151 308.639 414.025C305.67 413.727 304.622 413.928 300.338 420.341C299.624 421.407 298.397 421.954 297.177 421.832Z" fill="#FFFF52"/>
<path d="M308.057 394.539C305.653 404.311 306.374 406.176 314.755 411.774C312.436 411.202 310.562 410.807 308.979 410.649C303.876 410.137 301.782 412.071 297.516 418.456C299.919 408.684 299.195 406.821 290.819 401.224C293.135 401.793 295.008 402.188 296.591 402.347C301.691 402.858 303.785 400.925 308.057 394.539ZM308.734 387.786C306.294 387.541 303.839 388.636 302.415 390.767C301.688 391.853 299.757 394.739 298.676 395.516C298.589 395.579 298.411 395.708 297.268 395.593C296.189 395.485 294.7 395.189 292.44 394.634C292.124 394.556 291.807 394.502 291.492 394.47C288.609 394.181 285.806 395.769 284.608 398.487C283.28 401.504 284.309 405.036 287.05 406.867C291.112 409.582 291.784 410.475 291.884 410.732C291.983 410.989 292.089 412.097 290.925 416.835C290.139 420.034 291.764 423.338 294.779 424.666C295.448 424.96 296.142 425.14 296.839 425.209C299.278 425.454 301.733 424.358 303.16 422.225C303.885 421.14 305.813 418.255 306.894 417.477C306.979 417.416 307.159 417.287 308.302 417.401C309.381 417.51 310.871 417.807 313.135 418.362C313.449 418.441 313.767 418.495 314.082 418.527C316.966 418.816 319.768 417.227 320.967 414.508C322.295 411.492 321.265 407.958 318.524 406.128C314.46 403.415 313.789 402.521 313.689 402.264C313.587 402.007 313.482 400.898 314.647 396.161C315.435 392.962 313.811 389.659 310.795 388.33C310.125 388.034 309.431 387.855 308.734 387.786Z" fill="#020102"/>
<path d="M161.535 386.35C161.535 386.35 148.827 381.287 138.235 373.121Z" fill="#43264F"/>
<path d="M160.251 389.491C160.251 389.491 159.874 389.275 159.215 388.896C158.526 388.506 157.589 387.94 156.49 387.254C155.378 386.578 154.126 385.725 152.773 384.848C151.45 383.907 150.02 382.965 148.65 381.924C147.288 380.868 145.89 379.895 144.671 378.838C143.446 377.796 142.267 376.897 141.338 376.01C139.477 374.277 138.234 373.121 138.234 373.121C138.234 373.121 139.717 373.926 141.941 375.138C143.035 375.752 144.403 376.33 145.809 377.015C147.206 377.715 148.786 378.306 150.311 378.964C151.845 379.61 153.428 380.153 154.875 380.711C156.354 381.207 157.715 381.7 158.9 382.059C160.084 382.433 161.061 382.728 161.728 382.907C162.423 383.098 162.819 383.209 162.819 383.209L162.868 383.223C164.691 383.726 165.759 385.613 165.254 387.434C164.751 389.259 162.863 390.326 161.042 389.821C160.765 389.744 160.49 389.627 160.251 389.491Z" fill="#020102"/>
<path d="M338.614 404.108C338.614 404.108 352.075 401.669 364.075 395.769Z" fill="#43264F"/>
<path d="M337.978 400.775C337.978 400.775 338.39 400.745 339.107 400.695C339.797 400.652 340.812 400.557 342.047 400.426C343.28 400.31 344.711 400.096 346.261 399.905C347.788 399.645 349.448 399.427 351.079 399.099C352.704 398.756 354.37 398.492 355.878 398.084C357.392 397.69 358.847 397.395 360.042 397.011C362.462 396.264 364.075 395.769 364.075 395.769C364.075 395.769 362.63 396.656 360.46 397.984C359.373 398.669 358.039 399.316 356.631 400.096C355.228 400.889 353.666 401.567 352.12 402.329C350.569 403.077 348.98 403.717 347.5 404.376C345.999 404.968 344.602 405.555 343.378 405.996C342.165 406.45 341.134 406.821 340.382 407.065C339.66 407.305 339.249 407.442 339.249 407.442C337.454 408.039 335.516 407.068 334.919 405.274C334.322 403.481 335.292 401.543 337.086 400.946C337.359 400.854 337.635 400.8 337.911 400.779L337.978 400.775Z" fill="#020102"/>
<path d="M214.919 384.222C214.381 384.168 213.854 383.985 213.386 383.675L185.997 365.583L167.146 373.201C166.625 373.412 166.073 373.486 165.535 373.432C164.851 373.363 164.191 373.087 163.652 372.619C162.688 371.785 162.274 370.481 162.579 369.244C166.674 352.603 176.869 322.171 191.286 283.554C191.78 282.228 193.049 281.348 194.464 281.349C194.578 281.348 194.694 281.354 194.805 281.365C196.081 281.493 197.188 282.332 197.645 283.55L208.879 313.532L240.725 321.468C241.978 321.781 242.945 322.777 243.22 324.039C243.495 325.301 243.029 326.61 242.019 327.416L216.351 347.871L218.643 380.608C218.733 381.895 218.083 383.125 216.969 383.774C216.337 384.144 215.619 384.292 214.919 384.222Z" fill="white"/>
<path d="M194.466 284.741L206.326 316.393L239.904 324.761L212.839 346.328L215.257 380.845L186.38 361.767L165.874 370.055C170.093 352.912 180.536 322.051 194.466 284.741ZM195.145 277.988C194.92 277.965 194.692 277.954 194.462 277.954C191.63 277.955 189.097 279.715 188.108 282.367C173.647 321.103 163.41 351.669 159.284 368.432C158.674 370.907 159.502 373.515 161.43 375.185C162.507 376.119 163.829 376.671 165.197 376.808C166.273 376.916 167.377 376.767 168.417 376.348L185.615 369.397L211.515 386.507C212.452 387.125 213.505 387.49 214.579 387.598C215.979 387.738 217.417 387.443 218.68 386.706C220.909 385.403 222.209 382.947 222.026 380.37L219.86 349.413L244.133 330.069C246.153 328.459 247.085 325.842 246.536 323.318C245.986 320.793 244.051 318.8 241.544 318.175L211.43 310.67L200.82 282.36C199.908 279.924 197.693 278.244 195.145 277.988Z" fill="#020102"/>
<path d="M295.943 347.39C295.243 347.319 294.568 347.032 294.023 346.545C293.059 345.686 292.666 344.351 293.01 343.107L299.487 319.713L283.881 301.132C283.05 300.143 282.852 298.767 283.371 297.585C283.891 296.402 285.037 295.616 286.328 295.559L310.578 294.477L323.432 273.897C324.115 272.803 325.362 272.191 326.649 272.32C327.934 272.449 329.034 273.296 329.488 274.505L333.325 284.749C333.43 285.027 333.496 285.316 333.526 285.61C336.295 306.154 338.296 325.925 339.473 344.378C339.555 345.663 338.902 346.884 337.789 347.531C337.159 347.894 336.443 348.04 335.748 347.97C335.21 347.916 334.683 347.734 334.214 347.425L320.055 338.067L297.552 347.158C297.032 347.37 296.48 347.443 295.943 347.39Z" fill="white"/>
<path d="M326.31 275.696L330.147 285.939L330.146 285.949C332.766 305.369 334.84 325.074 336.086 344.594L320.437 334.253L296.281 344.013L303.233 318.898L286.479 298.949L312.51 297.79L326.31 275.696ZM326.987 268.943C324.416 268.685 321.921 269.91 320.552 272.101L308.644 291.167L286.177 292.169C283.597 292.284 281.303 293.854 280.264 296.221C279.225 298.585 279.621 301.336 281.282 303.315L295.739 320.529L289.74 342.202C289.051 344.692 289.835 347.358 291.763 349.078C292.854 350.05 294.204 350.626 295.604 350.766C296.679 350.874 297.785 350.726 298.824 350.305L319.673 341.882L332.344 350.257C333.279 350.875 334.333 351.24 335.407 351.347C336.802 351.487 338.232 351.196 339.49 350.466C341.718 349.175 343.022 346.733 342.859 344.163C341.677 325.63 339.669 305.778 336.888 285.156C336.824 284.61 336.697 284.072 336.503 283.557L332.666 273.315C331.758 270.896 329.557 269.201 326.987 268.943Z" fill="#020102"/>
<path d="M261.097 221.72C260.559 221.666 260.033 221.484 259.565 221.174L239.317 207.795L224.656 213.717C224.135 213.927 223.582 214 223.047 213.947C222.281 213.87 221.549 213.535 220.985 212.969C220.022 212.006 219.728 210.56 220.238 209.298C228.306 189.354 236.557 169.5 244.765 150.287C245.308 149.012 246.575 148.196 247.961 148.227C248.049 148.229 248.138 148.234 248.225 148.243C249.501 148.371 250.607 149.213 251.062 150.428L257.261 166.958L280.813 172.833C282.066 173.145 283.034 174.142 283.308 175.405C283.583 176.666 283.117 177.975 282.106 178.78L263.131 193.895L264.821 218.108C264.911 219.396 264.26 220.624 263.146 221.275C262.514 221.642 261.797 221.79 261.097 221.72Z" fill="white"/>
<path d="M247.885 151.62L254.71 169.818L279.992 176.125L259.621 192.351L261.435 218.343L239.7 203.981L223.385 210.57C231.257 191.108 239.513 171.219 247.885 151.62ZM248.564 144.867C248.391 144.849 248.214 144.838 248.036 144.834C245.264 144.772 242.732 146.403 241.643 148.954C233.428 168.187 225.168 188.061 217.093 208.025C216.072 210.55 216.659 213.441 218.584 215.368C219.716 216.5 221.18 217.17 222.708 217.324C223.781 217.431 224.884 217.284 225.926 216.864L238.934 211.611L257.695 224.006C258.63 224.625 259.682 224.989 260.758 225.097C262.157 225.237 263.593 224.942 264.856 224.206C267.088 222.903 268.385 220.448 268.207 217.871L266.639 195.437L284.221 181.434C286.241 179.824 287.173 177.207 286.624 174.683C286.075 172.159 284.141 170.165 281.635 169.54L259.812 164.097L254.24 149.237C253.328 146.805 251.117 145.123 248.564 144.867Z" fill="#020102"/>
</svg>
